<svg width="38" height="28" viewBox="0 0 38 28" fill="none" xmlns="http://www.w3.org/2000/svg">
<path d="M8.33824 27.2917C6.97385 27.2917 5.81249 26.8137 4.85415 25.8576C3.89582 24.9016 3.41665 23.7408 3.41665 22.375H0.666656V3.16667C0.666656 2.5 0.916656 1.91667 1.41665 1.41667C1.91665 0.916664 2.49999 0.666664 3.16665 0.666664H27.2917V7.625H31.6667L37.3333 15.1667V22.375H34.375C34.375 23.7408 33.8975 24.9016 32.9424 25.8576C31.9873 26.8137 30.8276 27.2917 29.4632 27.2917C28.0989 27.2917 26.9375 26.8137 25.9792 25.8576C25.0208 24.9016 24.5417 23.7408 24.5417 22.375H13.25C13.25 23.7361 12.7725 24.8958 11.8174 25.8542C10.8623 26.8125 9.7026 27.2917 8.33824 27.2917ZM8.33332 24.7917C8.99999 24.7917 9.56943 24.5556 10.0417 24.0833C10.5139 23.6111 10.75 23.0417 10.75 22.375C10.75 21.7083 10.5139 21.1389 10.0417 20.6667C9.56943 20.1944 8.99999 19.9583 8.33332 19.9583C7.66665 19.9583 7.09721 20.1944 6.62499 20.6667C6.15277 21.1389 5.91665 21.7083 5.91665 22.375C5.91665 23.0417 6.15277 23.6111 6.62499 24.0833C7.09721 24.5556 7.66665 24.7917 8.33332 24.7917ZM3.16665 19.875H4.08332C4.55554 19.125 5.15333 18.5278 5.8767 18.0833C6.60006 17.6389 7.40561 17.4167 8.29336 17.4167C9.18111 17.4167 9.99304 17.6458 10.7292 18.1042C11.4653 18.5625 12.0694 19.1528 12.5417 19.875H24.7917V3.16667H3.16665V19.875ZM29.4583 24.7917C30.125 24.7917 30.6944 24.5556 31.1667 24.0833C31.6389 23.6111 31.875 23.0417 31.875 22.375C31.875 21.7083 31.6389 21.1389 31.1667 20.6667C30.6944 20.1944 30.125 19.9583 29.4583 19.9583C28.7917 19.9583 28.2222 20.1944 27.75 20.6667C27.2778 21.1389 27.0417 21.7083 27.0417 22.375C27.0417 23.0417 27.2778 23.6111 27.75 24.0833C28.2222 24.5556 28.7917 24.7917 29.4583 24.7917ZM27.2917 16.2917H35.0417L30.4167 10.125H27.2917V16.2917Z" fill="#57575C"/>
</svg>
